<svg width="46" height="46" fill="currentColor" viewBox="0 0 24 24" xmlns="http://www.w3.org/2000/svg">
  <path d="M12.12 3.6A5.4 5.4 0 0 0 6.72 9v8.457a2.943 2.943 0 0 0 5.7 1.033l.614-1.636a6.65 6.65 0 0 1 .98-1.752l2.409-3.097A5.208 5.208 0 0 0 12.312 3.6h-.192ZM5.52 9a6.6 6.6 0 0 1 6.6-6.6h.192a6.408 6.408 0 0 1 5.057 10.342l-2.41 3.097a5.47 5.47 0 0 0-.803 1.437l-.612 1.635a4.144 4.144 0 0 1-8.024-1.454V9Zm6.6-1.8a1.8 1.8 0 0 0-1.8 1.8v3.234a6.39 6.39 0 0 0 .398-.23c.392-.25.692-.528.864-.872a.6.6 0 0 1 1.074.537c-.307.616-.808 1.038-1.295 1.348-.336.206-.684.393-1.042.559V16.2a.6.6 0 1 1-1.2 0V9a3 3 0 1 1 6 0v.6a.6.6 0 1 1-1.2 0V9a1.8 1.8 0 0 0-1.8-1.8Z"></path>
</svg>