<svg width="46" height="46" fill="currentColor" viewBox="0 0 24 24" xmlns="http://www.w3.org/2000/svg">
  <path d="M12.12 2.4A6.6 6.6 0 0 0 5.52 9v8.457a4.143 4.143 0 0 0 8.024 1.454l.612-1.635a5.473 5.473 0 0 1 .804-1.437l2.41-3.097A6.409 6.409 0 0 0 12.31 2.4h-.191ZM10.32 9v3.234a6.39 6.39 0 0 0 .398-.23c.392-.25.692-.528.864-.872a.6.6 0 0 1 1.074.537c-.307.616-.808 1.038-1.295 1.348-.336.206-.684.393-1.042.559V16.2a.6.6 0 1 1-1.2 0V9a3 3 0 1 1 6 0v.6a.6.6 0 1 1-1.2 0V9a1.8 1.8 0 1 0-3.6 0Z"></path>
</svg>