<svg width="46" height="46" fill="currentColor" viewBox="0 0 24 24" xmlns="http://www.w3.org/2000/svg">
  <path d="M13.756 3.313c-.516-1.75-2.996-1.75-3.512 0l-.125.424a1.83 1.83 0 0 1-2.631 1.09L7.1 4.615c-1.604-.873-3.357.881-2.484 2.484l.212.388a1.83 1.83 0 0 1-1.09 2.632l-.425.125c-1.75.516-1.75 2.996 0 3.512l.424.125a1.83 1.83 0 0 1 1.09 2.631l-.212.388c-.873 1.604.881 3.358 2.484 2.484l.388-.212a1.83 1.83 0 0 1 2.632 1.09l.125.425c.516 1.75 2.996 1.75 3.512 0l.125-.425a1.829 1.829 0 0 1 2.631-1.09l.388.213c1.604.872 3.358-.881 2.484-2.484l-.212-.389a1.83 1.83 0 0 1 1.09-2.63l.425-.126c1.75-.516 1.75-2.996 0-3.512l-.425-.125a1.83 1.83 0 0 1-1.09-2.631l.213-.388c.872-1.604-.881-3.357-2.484-2.484l-.389.212a1.83 1.83 0 0 1-2.63-1.09l-.126-.425ZM12 15.662a3.663 3.663 0 1 1 0-7.32 3.663 3.663 0 0 1 0 7.317v.002Z"></path>
</svg>